# xmcd CD database file
#
# Track frame offsets:
#	150
#	12090
#	28820
#	45385
#	60195
#	76240
#	96507
#	114740
#	132615
#	145090
#	159825
#
# Disc length: 2414 seconds
#
# Revision: 2
# Processed by: cddbd v1.5PL3 Copyright (c) Steve Scherf et al.
# Submitted via: CDex 1.51
#
DISCID=86096c0b
DTITLE=The Thompson Brothers Band - Blame It On The Dog
DYEAR=1900
DGENRE=
TTITLE0=Life's Too Short
TTITLE1=Don't Mind If I Do
TTITLE2=A Million Miles Away
TTITLE3=Caroline
TTITLE4=Drive Me Crazy
TTITLE5=Run Away With You
TTITLE6=Back On The Farm
TTITLE7=Broken For Good
TTITLE8=Shot Me Down (Bang Bang)
TTITLE9=Cry
TTITLE10=Pick Up The Tempo (featuring Steve Earle)
EXTD=\nURL: http://www.twangthis.com/artists/thompsonbros/ "Thompson Brothers Band"
EXTT0=
EXTT1=
EXTT2=
EXTT3=
EXTT4=
EXTT5=
EXTT6=
EXTT7=
EXTT8=
EXTT9=
EXTT10=
PLAYORDER=
